<svg width="309" height="208" viewBox="0 0 309 208" fill="none" xmlns="http://www.w3.org/2000/svg">
<path d="M108.41 153.2C108.303 153.307 108.143 153.307 107.93 153.2C107.823 153.2 107.77 153.093 107.77 152.88C107.77 152.88 107.983 152.613 108.41 152.08C111.61 148.027 114.01 143.6 115.61 138.8L113.85 138.64H94.81V144.24V150V150.96C94.81 151.6 94.65 152.027 94.33 152.24C94.01 152.453 93.3167 152.56 92.25 152.56H90.01C88.9433 152.56 88.25 152.453 87.93 152.24C87.61 152.027 87.45 151.6 87.45 150.96V150V144.24L87.61 24.56L87.45 17.04L87.29 13.36C87.29 13.1467 87.3967 13.04 87.61 13.04L91.93 13.84C93.21 14.16 94.2233 14.4267 94.97 14.64C95.8233 14.7467 96.25 14.9067 96.25 15.12C96.25 15.3333 96.09 15.6 95.77 15.92C95.5567 16.24 95.13 16.72 94.49 17.36V22V24.56L94.65 55.76H104.09L104.25 22.16L104.09 15.12L103.93 11.6C103.93 11.4933 104.037 11.44 104.25 11.44L108.41 12.24C109.583 12.4533 110.543 12.6667 111.29 12.88C112.037 12.9867 112.41 13.1467 112.41 13.36C112.41 13.5733 112.25 13.84 111.93 14.16C111.717 14.48 111.343 14.9067 110.81 15.44V19.92V22.16V55.76H112.41C113.69 52.7733 114.383 51.28 114.49 51.28C114.703 51.28 115.77 52.08 117.69 53.68C119.93 55.6 121.05 56.6667 121.05 56.88C121.05 57.0933 120.73 57.2 120.09 57.2C119.557 57.2 118.65 57.2 117.37 57.2H110.81V67.28C113.69 68.1333 115.823 70.1067 117.21 73.2C118.597 76.1867 119.29 79.92 119.29 84.4C119.29 87.0667 118.97 89.2533 118.33 90.96C117.69 92.6667 116.89 93.5733 115.93 93.68C115.397 93.68 114.863 93.2 114.33 92.24C113.797 91.28 113.477 89.7333 113.37 87.6C112.943 79.28 112.09 73.36 110.81 69.84L110.97 122.48L111.13 127.92V128.88C111.13 129.52 110.97 129.947 110.65 130.16C110.33 130.373 109.69 130.48 108.73 130.48H106.49C105.53 130.48 104.89 130.373 104.57 130.16C104.25 129.947 104.09 129.52 104.09 128.88V127.92V122.48V96.56C101.85 104.56 98.7033 112.293 94.65 119.76L94.81 137.36H109.37C110.543 134.373 111.183 132.88 111.29 132.88C111.397 132.88 112.357 133.68 114.17 135.28L116.25 137.04C119.77 125.627 121.53 107.547 121.53 82.8L121.37 25.52C121.263 22.8533 121.157 20.1867 121.05 17.52C121.05 17.0933 121.263 16.9333 121.69 17.04L126.97 18.64L130.65 19.6C134.063 18 137.903 15.1733 142.17 11.12L146.49 17.04C147.023 17.68 147.45 18.2667 147.77 18.8C148.197 19.3333 148.357 19.6533 148.25 19.76C148.037 19.9733 147.663 20.1333 147.13 20.24C146.597 20.24 145.903 20.2933 145.05 20.4C140.463 21.1467 135.397 21.5733 129.85 21.68C129.423 22.1067 129.21 22.64 129.21 23.28V23.6L129.05 55.12H138.97C140.57 52.1333 141.423 50.64 141.53 50.64C141.743 50.64 143.023 51.44 145.37 53.04C146.543 53.7867 147.503 54.48 148.25 55.12C149.103 55.6533 149.53 56.0267 149.53 56.24C149.53 56.4533 149.157 56.56 148.41 56.56C147.663 56.56 146.49 56.5067 144.89 56.4H142.49C143.13 56.6133 143.45 56.8267 143.45 57.04C143.45 57.2533 143.29 57.5733 142.97 58C142.65 58.32 142.17 58.8533 141.53 59.6V64.72V67.76L141.85 145.04V151.44V152.72C141.85 153.36 141.637 153.787 141.21 154C140.89 154.213 140.197 154.32 139.13 154.32H136.41C135.237 154.32 134.437 154.213 134.01 154C133.69 153.787 133.53 153.36 133.53 152.72V151.44L133.69 145.04V67.76V59.12L133.53 56.4H129.05V78.8C129.05 95.76 128.143 109.2 126.33 119.12C124.517 128.933 122.17 136.187 119.29 140.88C116.517 145.467 112.89 149.573 108.41 153.2ZM100.25 51.92C98.5433 51.92 97.6367 49.6267 97.53 45.04C97.3167 34.8 96.6767 27.28 95.61 22.48L95.45 21.68C95.3433 21.4667 95.3433 21.36 95.45 21.36C95.5567 21.2533 95.6633 21.2 95.77 21.2C100.89 25.4667 103.45 32.4533 103.45 42.16C103.45 45.04 103.13 47.3867 102.49 49.2C101.957 51.0133 101.21 51.92 100.25 51.92ZM111.93 51.76C111.93 51.8667 111.877 51.92 111.77 51.92C111.663 51.8133 111.557 51.76 111.45 51.76C111.45 51.5467 111.45 51.12 111.45 50.48C112.41 36.6133 113.103 25.68 113.53 17.68L118.33 18.96C119.29 19.1733 119.93 19.3867 120.25 19.6C120.677 19.7067 120.943 19.8667 121.05 20.08C121.05 20.2933 120.89 20.6133 120.57 21.04C120.357 21.4667 119.983 22 119.45 22.64C117.743 28.8267 115.557 37.3067 112.89 48.08L111.93 51.76ZM94.65 116.08C99.3433 101.893 102.01 82.2667 102.65 57.2H94.65V116.08ZM161.54 153.04C161.433 153.147 161.273 153.147 161.06 153.04C160.953 153.04 160.9 152.987 160.9 152.88L161.22 151.92C165.273 144.027 167.887 133.413 169.06 120.08C170.233 106.64 170.82 88.6667 170.82 66.16L170.66 48.88L170.5 19.44L170.18 11.6C170.18 11.28 170.393 11.1733 170.82 11.28L177.06 13.04L180.58 14.16C181.327 14.3733 181.7 14.5867 181.7 14.8C181.7 15.2267 181.113 16.08 179.94 17.36L179.78 42.48V51.12H191.46L191.78 26.64L191.62 14.32L191.46 9.2C191.46 8.98666 191.62 8.87999 191.94 8.87999L197.54 10C199.247 10.32 200.58 10.5867 201.54 10.8C202.607 11.0133 203.14 11.28 203.14 11.6C203.14 11.8133 202.927 12.1867 202.5 12.72C202.18 13.1467 201.647 13.7333 200.9 14.48V21.36V26.64L201.06 51.12H210.66C212.26 48.1333 213.113 46.64 213.22 46.64C213.433 46.64 214.713 47.44 217.06 49.04C218.233 49.7867 219.193 50.48 219.94 51.12C220.793 51.6533 221.22 52.0267 221.22 52.24C221.22 52.4533 220.847 52.56 220.1 52.56C219.353 52.56 218.233 52.5067 216.74 52.4H179.78C179.78 63.28 179.673 72.24 179.46 79.28H190.34H192.42C194.233 75.9733 195.247 74.32 195.46 74.32C195.78 74.32 196.953 74.96 198.98 76.24C200.26 77.2 201.487 78.1067 202.66 78.96C203.833 79.7067 204.42 80.1867 204.42 80.4C204.42 80.72 204.207 81.0933 203.78 81.52C203.46 81.84 202.927 82.3733 202.18 83.12L202.02 86.8L202.34 146V152.88V154.16C202.34 154.907 202.127 155.387 201.7 155.6C201.38 155.92 200.58 156.08 199.3 156.08H196.1C194.82 156.08 193.967 155.92 193.54 155.6C193.113 155.387 192.9 154.907 192.9 154.16V152.88L193.06 145.84L193.22 91.44V89.68L193.06 82C193.06 81.2533 192.9 80.8267 192.58 80.72H179.3C178.767 98.64 177.22 113.307 174.66 124.72C172.1 136.027 167.727 145.467 161.54 153.04Z" fill="white"/>
<path d="M114.058 207.008C113.898 207.008 113.594 206.896 113.146 206.672C112.698 206.48 112.394 206.32 112.234 206.192C111.978 206 111.898 205.68 111.994 205.232L112.618 202.352C113.994 195.824 115.114 190.096 115.978 185.168C116.33 183.12 116.698 180.624 117.082 177.68C115.834 177.872 114.714 177.968 113.722 177.968C113.338 177.968 112.954 177.952 112.57 177.92C111.802 177.824 111.482 177.024 111.61 175.52C111.642 175.456 111.69 175.424 111.754 175.424C111.818 175.392 111.866 175.424 111.898 175.52C112.09 175.904 112.394 176.224 112.81 176.48C113.226 176.704 113.722 176.816 114.298 176.816C114.81 176.816 115.338 176.72 115.882 176.528C116.394 176.368 116.858 176.208 117.274 176.048C117.722 172.592 117.946 170.448 117.946 169.616C117.946 169.04 117.786 168.56 117.466 168.176C117.018 167.632 116.682 167.392 116.458 167.456C116.394 167.488 116.346 167.472 116.314 167.408C116.282 167.312 116.282 167.248 116.314 167.216C116.602 166.96 116.954 166.88 117.37 166.976C117.626 167.008 118.106 167.168 118.81 167.456C119.546 167.744 120.138 168 120.586 168.224C120.842 168.352 120.97 168.544 120.97 168.8L120.874 169.184C120.49 170.656 120.042 172.512 119.53 174.752L121.162 173.6C121.418 173.408 121.706 173.344 122.026 173.408C122.218 173.44 122.57 173.584 123.082 173.84C123.594 174.064 123.978 174.256 124.234 174.416C124.33 174.48 124.378 174.576 124.378 174.704C124.378 174.832 124.314 174.96 124.186 175.088C123.898 175.344 123.306 175.68 122.41 176.096C121.546 176.48 120.506 176.832 119.29 177.152L119.002 177.248C118.426 179.968 117.898 182.768 117.418 185.648C116.938 188.432 116.41 192.032 115.834 196.448C115.258 200.864 114.842 204.192 114.586 206.432C114.586 206.592 114.522 206.72 114.394 206.816C114.298 206.944 114.186 207.008 114.058 207.008ZM128.506 206.768C127.674 206.896 126.682 206.96 125.53 206.96C123.674 206.96 122.426 206.816 121.786 206.528C119.802 205.664 118.81 203.776 118.81 200.864C118.81 199.168 119.146 197.104 119.818 194.672C119.882 194.512 119.962 194.448 120.058 194.48C120.154 194.512 120.186 194.608 120.154 194.768C119.93 195.984 119.818 197.104 119.818 198.128C119.818 199.536 120.026 200.72 120.442 201.68C120.89 202.64 121.498 203.296 122.266 203.648C122.81 203.904 123.61 204.032 124.666 204.032C125.626 204.032 126.458 203.936 127.162 203.744L127.402 203.696C127.594 203.696 127.754 203.76 127.882 203.888C128.49 204.464 128.874 205.2 129.034 206.096V206.192C129.034 206.32 128.97 206.432 128.842 206.528C128.746 206.656 128.634 206.736 128.506 206.768ZM121.594 190.304C121.53 190.4 121.45 190.432 121.354 190.4C121.29 190.336 121.29 190.256 121.354 190.16C121.578 189.52 121.978 188.72 122.554 187.76C123.162 186.8 123.738 186.096 124.282 185.648C123.034 185.584 121.77 185.936 120.49 186.704C120.394 186.768 120.314 186.768 120.25 186.704C120.186 186.64 120.186 186.576 120.25 186.512C120.602 186.128 121.114 185.632 121.786 185.024C122.426 184.512 123.194 184.08 124.09 183.728C125.018 183.376 125.818 183.232 126.49 183.296C126.81 183.328 127.162 183.552 127.546 183.968C127.93 184.352 128.186 184.704 128.314 185.024V185.216C128.314 185.504 128.186 185.664 127.93 185.696C126.65 185.952 125.434 186.496 124.282 187.328C123.13 188.16 122.234 189.152 121.594 190.304ZM129.85 172.928C129.754 172.928 129.658 172.944 129.562 172.976C129.21 172.976 128.906 172.72 128.65 172.208C127.818 170.384 126.954 169.232 126.058 168.752L125.914 168.704C125.914 168.704 125.914 168.688 125.914 168.656C125.946 168.624 125.978 168.608 126.01 168.608C126.874 168.512 127.626 168.672 128.266 169.088C128.938 169.504 129.45 170.064 129.802 170.768C130.09 171.28 130.234 171.728 130.234 172.112C130.234 172.528 130.106 172.8 129.85 172.928ZM127.978 175.616C127.594 175.616 127.306 175.312 127.114 174.704C126.474 172.816 125.738 171.6 124.906 171.056L124.762 171.008C124.73 170.976 124.73 170.944 124.762 170.912C124.794 170.88 124.826 170.864 124.858 170.864C125.69 170.864 126.41 171.104 127.018 171.584C127.658 172.064 128.122 172.672 128.41 173.408C128.57 173.856 128.65 174.256 128.65 174.608C128.65 175.12 128.506 175.44 128.218 175.568L127.978 175.616ZM136.093 207.344C135.933 207.312 135.629 207.2 135.181 207.008C134.765 206.816 134.477 206.64 134.317 206.48C134.189 206.352 134.125 206.16 134.125 205.904L134.173 205.52L134.941 202.688C136.797 196.064 138.317 190.256 139.501 185.264C140.077 182.832 140.701 179.904 141.373 176.48C142.045 173.056 142.445 170.768 142.573 169.616V169.376C142.573 168.928 142.413 168.496 142.093 168.08C141.645 167.536 141.309 167.312 141.085 167.408C141.021 167.408 140.957 167.376 140.893 167.312C140.861 167.248 140.877 167.184 140.941 167.12C141.197 166.896 141.533 166.816 141.949 166.88C142.237 166.944 142.733 167.12 143.437 167.408C144.173 167.696 144.765 167.936 145.213 168.128C145.437 168.256 145.549 168.464 145.549 168.752L145.501 169.136C144.061 173.36 142.525 178.896 140.893 185.744L140.125 189.104C140.541 188.272 140.989 187.616 141.469 187.136C141.981 186.656 142.477 186.416 142.957 186.416C143.757 186.416 144.317 186.688 144.637 187.232C144.989 187.776 145.165 188.736 145.165 190.112C145.165 191.072 145.085 192.848 144.925 195.44C144.797 198.064 144.733 199.856 144.733 200.816C144.733 203.056 145.181 204.176 146.077 204.176C146.685 204.176 147.325 203.712 147.997 202.784C148.701 201.856 149.341 200.496 149.917 198.704C150.493 196.88 150.941 194.72 151.261 192.224C151.293 192.064 151.357 192 151.453 192.032C151.581 192.032 151.629 192.128 151.597 192.32C151.405 196.48 150.797 199.968 149.773 202.784C148.781 205.568 147.389 206.96 145.597 206.96C144.573 206.96 143.805 206.592 143.293 205.856C142.813 205.088 142.573 204.048 142.573 202.736C142.573 201.04 142.717 198.576 143.005 195.344C143.293 192.4 143.437 190.224 143.437 188.816C143.437 188.464 143.341 188.192 143.149 188C142.989 187.776 142.797 187.664 142.573 187.664C142.285 187.664 142.029 187.792 141.805 188.048C140.557 189.552 139.533 192.176 138.733 195.92V195.968C137.805 200.48 137.117 204.08 136.669 206.768C136.637 206.928 136.557 207.056 136.429 207.152C136.333 207.28 136.221 207.344 136.093 207.344ZM174.016 200.192C173.92 200.256 173.824 200.288 173.728 200.288C173.536 200.288 173.36 200.192 173.2 200C171.504 197.664 169.904 195.184 168.4 192.56C166.928 189.904 165.36 186.96 163.696 183.728C162.576 181.52 161.872 180.192 161.584 179.744C161.424 179.52 161.248 179.408 161.056 179.408C160.8 179.408 160.624 179.552 160.528 179.84C159.92 181.792 159.088 185.12 158.032 189.824C157.968 190.048 157.808 190.16 157.552 190.16C157.392 190.16 157.232 190.112 157.072 190.016C155.92 189.216 155.2 188.656 154.912 188.336C154.592 188.016 154.48 187.696 154.576 187.376C154.576 187.312 154.624 187.296 154.72 187.328C154.816 187.328 154.864 187.36 154.864 187.424C154.928 187.648 155.088 187.76 155.344 187.76C155.6 187.76 155.936 187.44 156.352 186.8C156.8 186 157.328 184.88 157.936 183.44C158.544 182 159.088 180.592 159.568 179.216C159.856 178.384 160.352 177.968 161.056 177.968C161.632 177.968 162.112 178.24 162.496 178.784C162.976 179.456 163.776 180.832 164.896 182.912C166.56 185.952 168.144 188.592 169.648 190.832C171.152 193.072 172.928 195.12 174.976 196.976C175.2 197.168 175.312 197.408 175.312 197.696L175.264 198.128C175.2 198.384 175.008 198.784 174.688 199.328C174.4 199.84 174.176 200.128 174.016 200.192ZM169.12 182.672C168.512 182.672 168 182.48 167.584 182.096C167.2 181.68 167.008 181.168 167.008 180.56C167.008 179.952 167.2 179.456 167.584 179.072C168 178.688 168.512 178.496 169.12 178.496C169.728 178.496 170.224 178.688 170.608 179.072C170.992 179.456 171.184 179.952 171.184 180.56C171.184 181.168 170.992 181.68 170.608 182.096C170.224 182.48 169.728 182.672 169.12 182.672ZM169.12 182C169.536 182 169.872 181.872 170.128 181.616C170.416 181.328 170.56 180.976 170.56 180.56C170.56 180.144 170.416 179.808 170.128 179.552C169.872 179.264 169.536 179.12 169.12 179.12C168.704 179.12 168.352 179.264 168.064 179.552C167.808 179.808 167.68 180.144 167.68 180.56C167.68 180.976 167.808 181.328 168.064 181.616C168.352 181.872 168.704 182 169.12 182ZM180.643 207.344C180.483 207.312 180.179 207.2 179.731 207.008C179.315 206.816 179.027 206.64 178.867 206.48C178.739 206.352 178.675 206.16 178.675 205.904L178.723 205.52L179.491 202.688C181.347 196.064 182.867 190.256 184.051 185.264C184.627 182.832 185.251 179.904 185.923 176.48C186.595 173.056 186.995 170.768 187.123 169.616V169.376C187.123 168.928 186.963 168.496 186.643 168.08C186.195 167.536 185.859 167.312 185.635 167.408C185.571 167.408 185.507 167.376 185.443 167.312C185.411 167.248 185.427 167.184 185.491 167.12C185.747 166.896 186.083 166.816 186.499 166.88C186.787 166.944 187.283 167.12 187.987 167.408C188.723 167.696 189.315 167.936 189.763 168.128C189.987 168.256 190.099 168.464 190.099 168.752L190.051 169.136C188.611 173.36 187.075 178.896 185.443 185.744L184.675 189.104C185.091 188.272 185.539 187.616 186.019 187.136C186.531 186.656 187.027 186.416 187.507 186.416C188.307 186.416 188.867 186.688 189.187 187.232C189.539 187.776 189.715 188.736 189.715 190.112C189.715 191.072 189.635 192.848 189.475 195.44C189.347 198.064 189.283 199.856 189.283 200.816C189.283 203.056 189.731 204.176 190.627 204.176C191.235 204.176 191.875 203.712 192.547 202.784C193.251 201.856 193.891 200.496 194.467 198.704C195.043 196.88 195.491 194.72 195.811 192.224C195.843 192.064 195.907 192 196.003 192.032C196.131 192.032 196.179 192.128 196.147 192.32C195.955 196.48 195.347 199.968 194.323 202.784C193.331 205.568 191.939 206.96 190.147 206.96C189.123 206.96 188.355 206.592 187.843 205.856C187.363 205.088 187.123 204.048 187.123 202.736C187.123 201.04 187.267 198.576 187.555 195.344C187.843 192.4 187.987 190.224 187.987 188.816C187.987 188.464 187.891 188.192 187.699 188C187.539 187.776 187.347 187.664 187.123 187.664C186.835 187.664 186.579 187.792 186.355 188.048C185.107 189.552 184.083 192.176 183.283 195.92V195.968C182.355 200.48 181.667 204.08 181.219 206.768C181.187 206.928 181.107 207.056 180.979 207.152C180.883 207.28 180.771 207.344 180.643 207.344Z" fill="white"/>
</svg>
